<svg width="56" height="56" viewBox="0 0 56 56" fill="none" xmlns="http://www.w3.org/2000/svg">
<path d="M17.498 23.331V34.9964C17.498 38.8849 19.4423 40.8292 23.3308 40.8292H32.6632C36.5517 40.8292 38.4959 38.8849 38.4959 34.9964V23.331C38.4959 21.7756 37.7182 20.9979 36.1628 20.9979H19.8311C18.2757 20.9979 17.498 21.7756 17.498 23.331Z" fill="#E3F2FD" stroke="#333333" stroke-width="2.3331"/>
<path d="M38.4961 27.9972C42.385 27.9972 45.1072 28.7749 46.6628 30.3305V32.6638C45.1072 34.2194 42.385 34.9972 38.4961 34.9972" fill="#E3F2FD"/>
<path d="M38.4961 27.9972C42.385 27.9972 45.1072 28.7749 46.6628 30.3305V32.6638C45.1072 34.2194 42.385 34.9972 38.4961 34.9972" stroke="#333333" stroke-width="2.3331"/>
<path d="M17.4987 25.6641C13.6098 25.6641 10.8876 26.4419 9.33203 27.9974V30.3307C10.8876 31.8863 13.6098 32.6641 17.4987 32.6641" stroke="#333333" stroke-width="2.3331"/>
<path d="M27.9977 44.3288C26.4422 47.4399 26.4422 50.1621 27.9977 52.4955C29.5533 50.1621 29.5533 47.4399 27.9977 44.3288Z" fill="#64B5F6" stroke="#333333" stroke-width="1.74982"/>
<path d="M34.9967 46.6619C33.4412 48.9953 33.4412 50.9397 34.9967 52.4953C36.5523 50.9397 36.5523 48.9953 34.9967 46.6619Z" fill="#64B5F6" stroke="#333333" stroke-width="1.16655"/>
<path d="M20.9977 46.6619C19.4422 48.9953 19.4422 50.9397 20.9977 52.4953C22.5533 50.9397 22.5533 48.9953 20.9977 46.6619Z" fill="#64B5F6" stroke="#333333" stroke-width="1.16655"/>
</svg>
