<svg width="40" height="40" viewBox="0 0 40 40" fill="none" xmlns="http://www.w3.org/2000/svg">
<path d="M16.6663 25C21.2687 25 24.9997 21.2691 24.9997 16.6667C24.9997 12.0643 21.2687 8.33337 16.6663 8.33337C12.064 8.33337 8.33301 12.0643 8.33301 16.6667C8.33301 21.2691 12.064 25 16.6663 25Z" fill="white" stroke="#333333" stroke-width="1.66667"/>
<path d="M16.6663 22.5C19.888 22.5 22.4997 19.8884 22.4997 16.6667C22.4997 13.445 19.888 10.8334 16.6663 10.8334C13.4447 10.8334 10.833 13.445 10.833 16.6667C10.833 19.8884 13.4447 22.5 16.6663 22.5Z" fill="#E8F5E9" stroke="#333333" stroke-width="1.25"/>
<path d="M22.5 22.5L29.1667 29.1667" stroke="#333333" stroke-width="2.5" stroke-linecap="round"/>
<path d="M29.9997 31.6666C30.9201 31.6666 31.6663 30.9205 31.6663 30C31.6663 29.0795 30.9201 28.3333 29.9997 28.3333C29.0792 28.3333 28.333 29.0795 28.333 30C28.333 30.9205 29.0792 31.6666 29.9997 31.6666Z" fill="#333333"/>
<path d="M16.667 20C18.0477 20 19.167 18.5077 19.167 16.6667C19.167 14.8258 18.0477 13.3334 16.667 13.3334C15.2863 13.3334 14.167 14.8258 14.167 16.6667C14.167 18.5077 15.2863 20 16.667 20Z" fill="#81C784" stroke="#333333" stroke-width="0.833333"/>
<path d="M15.8337 16.25C16.0638 16.25 16.2503 16.0634 16.2503 15.8333C16.2503 15.6032 16.0638 15.4166 15.8337 15.4166C15.6035 15.4166 15.417 15.6032 15.417 15.8333C15.417 16.0634 15.6035 16.25 15.8337 16.25Z" fill="#333333"/>
<path d="M17.4997 16.25C17.7298 16.25 17.9163 16.0634 17.9163 15.8333C17.9163 15.6032 17.7298 15.4166 17.4997 15.4166C17.2696 15.4166 17.083 15.6032 17.083 15.8333C17.083 16.0634 17.2696 16.25 17.4997 16.25Z" fill="#333333"/>
<path d="M14.1667 16.6666C13.6111 17.7777 13.6111 18.6111 14.1667 19.1666" stroke="#333333" stroke-width="0.666667"/>
<path d="M19.167 16.6666C19.7225 17.7777 19.7225 18.6111 19.167 19.1666" stroke="#333333" stroke-width="0.666667"/>
</svg>
