<svg width="40" height="40" viewBox="0 0 40 40" fill="none" xmlns="http://www.w3.org/2000/svg">
<path d="M14.9997 12.5C14.9997 10.8333 15.5552 10 16.6663 10H23.333C24.4441 10 24.9997 10.8333 24.9997 12.5L26.6663 29.1667C26.6663 30.8333 25.5552 31.6667 23.333 31.6667H16.6663C14.4441 31.6667 13.333 30.8333 13.333 29.1667L14.9997 12.5Z" fill="#FFF8E1" stroke="#333333" stroke-width="1.66667"/>
<path d="M20 14.1667C22.7614 14.1667 25 13.4205 25 12.5C25 11.5796 22.7614 10.8334 20 10.8334C17.2386 10.8334 15 11.5796 15 12.5C15 13.4205 17.2386 14.1667 20 14.1667Z" fill="white" stroke="#333333" stroke-width="1.25"/>
<path d="M22.5003 18.3334H17.5003C17.0401 18.3334 16.667 18.7065 16.667 19.1667V25.8334C16.667 26.2936 17.0401 26.6667 17.5003 26.6667H22.5003C22.9606 26.6667 23.3337 26.2936 23.3337 25.8334V19.1667C23.3337 18.7065 22.9606 18.3334 22.5003 18.3334Z" fill="white" stroke="#333333" stroke-width="1.25"/>
<path d="M17.5 20.8334H22.5" stroke="#333333" stroke-width="0.833333"/>
<path d="M17.5 23.3334H22.5" stroke="#333333" stroke-width="0.833333"/>
<path d="M11.667 34.5833C12.3573 34.5833 12.917 34.0237 12.917 33.3333C12.917 32.643 12.3573 32.0833 11.667 32.0833C10.9766 32.0833 10.417 32.643 10.417 33.3333C10.417 34.0237 10.9766 34.5833 11.667 34.5833Z" fill="#FFB74D"/>
<path d="M15 36.25C15.6904 36.25 16.25 35.6904 16.25 35C16.25 34.3096 15.6904 33.75 15 33.75C14.3096 33.75 13.75 34.3096 13.75 35C13.75 35.6904 14.3096 36.25 15 36.25Z" fill="#FFB74D"/>
<path d="M25 36.25C25.6904 36.25 26.25 35.6904 26.25 35C26.25 34.3096 25.6904 33.75 25 33.75C24.3096 33.75 23.75 34.3096 23.75 35C23.75 35.6904 24.3096 36.25 25 36.25Z" fill="#FFB74D"/>
<path d="M28.333 34.5833C29.0234 34.5833 29.583 34.0237 29.583 33.3333C29.583 32.643 29.0234 32.0833 28.333 32.0833C27.6427 32.0833 27.083 32.643 27.083 33.3333C27.083 34.0237 27.6427 34.5833 28.333 34.5833Z" fill="#FFB74D"/>
</svg>
