<svg width="56" height="56" viewBox="0 0 56 56" fill="none" xmlns="http://www.w3.org/2000/svg">
<path d="M23.3305 34.9964C29.7732 34.9964 34.996 29.7736 34.996 23.3309C34.996 16.8883 29.7732 11.6655 23.3305 11.6655C16.8879 11.6655 11.665 16.8883 11.665 23.3309C11.665 29.7736 16.8879 34.9964 23.3305 34.9964Z" fill="white" stroke="#333333" stroke-width="2.3331"/>
<path d="M23.3309 31.4968C27.8407 31.4968 31.4967 27.8408 31.4967 23.331C31.4967 18.8211 27.8407 15.1651 23.3309 15.1651C18.821 15.1651 15.165 18.8211 15.165 23.331C15.165 27.8408 18.821 31.4968 23.3309 31.4968Z" fill="#E8F5E9" stroke="#333333" stroke-width="1.74982"/>
<path d="M31.4971 31.4968L40.8304 40.8301" stroke="#333333" stroke-width="3.49964" stroke-linecap="round"/>
<path d="M41.9964 44.3293C43.2851 44.3293 44.3298 43.2846 44.3298 41.996C44.3298 40.7073 43.2851 39.6626 41.9964 39.6626C40.7078 39.6626 39.6631 40.7073 39.6631 41.996C39.6631 43.2846 40.7078 44.3293 41.9964 44.3293Z" fill="#333333"/>
<path d="M23.3311 27.9981C25.2641 27.9981 26.8311 25.9088 26.8311 23.3314C26.8311 20.7541 25.2641 18.6648 23.3311 18.6648C21.3981 18.6648 19.8311 20.7541 19.8311 23.3314C19.8311 25.9088 21.3981 27.9981 23.3311 27.9981Z" fill="#81C784" stroke="#333333" stroke-width="1.16655"/>
<path d="M22.1644 22.7478C22.4866 22.7478 22.7477 22.4866 22.7477 22.1645C22.7477 21.8423 22.4866 21.5811 22.1644 21.5811C21.8422 21.5811 21.5811 21.8423 21.5811 22.1645C21.5811 22.4866 21.8422 22.7478 22.1644 22.7478Z" fill="#333333"/>
<path d="M24.4974 22.7478C24.8196 22.7478 25.0807 22.4866 25.0807 22.1645C25.0807 21.8423 24.8196 21.5811 24.4974 21.5811C24.1752 21.5811 23.9141 21.8423 23.9141 22.1645C23.9141 22.4866 24.1752 22.7478 24.4974 22.7478Z" fill="#333333"/>
<path d="M19.8314 23.331C19.0536 24.8865 19.0536 26.0532 19.8314 26.831" stroke="#333333" stroke-width="0.933239"/>
<path d="M26.8311 23.331C27.6088 24.8865 27.6088 26.0532 26.8311 26.831" stroke="#333333" stroke-width="0.933239"/>
</svg>
