<svg width="40" height="40" viewBox="0 0 40 40" fill="none" xmlns="http://www.w3.org/2000/svg">
<path d="M16.6667 29.1667L15 31.6667C15 32.7778 15.5556 33.3334 16.6667 33.3334H23.3333C24.4444 33.3334 25 32.7778 25 31.6667L23.3333 29.1667H16.6667Z" fill="#EFEBE9" stroke="#333333" stroke-width="1.66667"/>
<path d="M21.6663 10C21.6663 9.07957 20.9201 8.33337 19.9997 8.33337C19.0792 8.33337 18.333 9.07957 18.333 10V28.3334C18.333 29.2538 19.0792 30 19.9997 30C20.9201 30 21.6663 29.2538 21.6663 28.3334V10Z" fill="#D7CCC8" stroke="#333333" stroke-width="1.66667"/>
<path d="M20 10.8333C21.3807 10.8333 22.5 10.0871 22.5 9.16667C22.5 8.24619 21.3807 7.5 20 7.5C18.6193 7.5 17.5 8.24619 17.5 9.16667C17.5 10.0871 18.6193 10.8333 20 10.8333Z" fill="#BCAAA4" stroke="#333333" stroke-width="1.25"/>
<path d="M9.99967 33.3333C10.9201 33.3333 11.6663 32.5871 11.6663 31.6667C11.6663 30.7462 10.9201 30 9.99967 30C9.0792 30 8.33301 30.7462 8.33301 31.6667C8.33301 32.5871 9.0792 33.3333 9.99967 33.3333Z" fill="#A1887F" stroke="#333333" stroke-width="0.833333"/>
<path d="M13.333 36.25C14.0234 36.25 14.583 35.6904 14.583 35C14.583 34.3096 14.0234 33.75 13.333 33.75C12.6427 33.75 12.083 34.3096 12.083 35C12.083 35.6904 12.6427 36.25 13.333 36.25Z" fill="#A1887F" stroke="#333333" stroke-width="0.833333"/>
<path d="M26.6667 36.6666C27.5871 36.6666 28.3333 35.9205 28.3333 35C28.3333 34.0795 27.5871 33.3333 26.6667 33.3333C25.7462 33.3333 25 34.0795 25 35C25 35.9205 25.7462 36.6666 26.6667 36.6666Z" fill="#A1887F" stroke="#333333" stroke-width="0.833333"/>
<path d="M30 32.9167C30.6904 32.9167 31.25 32.357 31.25 31.6667C31.25 30.9763 30.6904 30.4167 30 30.4167C29.3096 30.4167 28.75 30.9763 28.75 31.6667C28.75 32.357 29.3096 32.9167 30 32.9167Z" fill="#A1887F" stroke="#333333" stroke-width="0.833333"/>
</svg>
