<svg width="56" height="56" viewBox="0 0 56 56" fill="none" xmlns="http://www.w3.org/2000/svg">
<path d="M20.9981 17.4982C20.9981 15.1651 21.7758 13.9986 23.3312 13.9986H32.6636C34.219 13.9986 34.9967 15.1651 34.9967 17.4982L37.3298 40.8292C37.3298 43.1623 35.7744 44.3288 32.6636 44.3288H23.3312C20.2204 44.3288 18.665 43.1623 18.665 40.8292L20.9981 17.4982Z" fill="#FFF8E1" stroke="#333333" stroke-width="2.3331"/>
<path d="M27.9973 19.8313C31.8629 19.8313 34.9966 18.7868 34.9966 17.4982C34.9966 16.2097 31.8629 15.1651 27.9973 15.1651C24.1317 15.1651 20.998 16.2097 20.998 17.4982C20.998 18.7868 24.1317 19.8313 27.9973 19.8313Z" fill="white" stroke="#333333" stroke-width="1.74982"/>
<path d="M31.4969 25.6641H24.4976C23.8533 25.6641 23.3311 26.1863 23.3311 26.8306V36.163C23.3311 36.8073 23.8533 37.3295 24.4976 37.3295H31.4969C32.1412 37.3295 32.6634 36.8073 32.6634 36.163V26.8306C32.6634 26.1863 32.1412 25.6641 31.4969 25.6641Z" fill="white" stroke="#333333" stroke-width="1.74982"/>
<path d="M24.4971 29.1637H31.4971" stroke="#333333" stroke-width="1.16655"/>
<path d="M24.4971 32.6634H31.4971" stroke="#333333" stroke-width="1.16655"/>
<path d="M16.332 48.4121C17.2985 48.4121 18.082 47.6286 18.082 46.6621C18.082 45.6956 17.2985 44.9121 16.332 44.9121C15.3655 44.9121 14.582 45.6956 14.582 46.6621C14.582 47.6286 15.3655 48.4121 16.332 48.4121Z" fill="#FFB74D"/>
<path d="M20.998 50.7452C21.9645 50.7452 22.748 49.9617 22.748 48.9952C22.748 48.0287 21.9645 47.2452 20.998 47.2452C20.0315 47.2452 19.248 48.0287 19.248 48.9952C19.248 49.9617 20.0315 50.7452 20.998 50.7452Z" fill="#FFB74D"/>
<path d="M34.9971 50.7452C35.9636 50.7452 36.7471 49.9617 36.7471 48.9952C36.7471 48.0287 35.9636 47.2452 34.9971 47.2452C34.0306 47.2452 33.2471 48.0287 33.2471 48.9952C33.2471 49.9617 34.0306 50.7452 34.9971 50.7452Z" fill="#FFB74D"/>
<path d="M39.6631 48.4121C40.6296 48.4121 41.4131 47.6286 41.4131 46.6621C41.4131 45.6956 40.6296 44.9121 39.6631 44.9121C38.6966 44.9121 37.9131 45.6956 37.9131 46.6621C37.9131 47.6286 38.6966 48.4121 39.6631 48.4121Z" fill="#FFB74D"/>
</svg>
