<svg width="56" height="56" viewBox="0 0 56 56" fill="none" xmlns="http://www.w3.org/2000/svg">
<path d="M23.3311 40.8292L20.998 44.3288C20.998 45.8842 21.7757 46.6619 23.3311 46.6619H32.6635C34.2189 46.6619 34.9966 45.8842 34.9966 44.3288L32.6635 40.8292H23.3311Z" fill="#EFEBE9" stroke="#333333" stroke-width="2.3331"/>
<path d="M30.3303 13.9986C30.3303 12.71 29.2857 11.6655 27.9972 11.6655C26.7086 11.6655 25.6641 12.71 25.6641 13.9986V39.6626C25.6641 40.9512 26.7086 41.9957 27.9972 41.9957C29.2857 41.9957 30.3303 40.9512 30.3303 39.6626V13.9986Z" fill="#D7CCC8" stroke="#333333" stroke-width="2.3331"/>
<path d="M27.9971 15.1656C29.9301 15.1656 31.4971 14.1209 31.4971 12.8323C31.4971 11.5436 29.9301 10.4989 27.9971 10.4989C26.0641 10.4989 24.4971 11.5436 24.4971 12.8323C24.4971 14.1209 26.0641 15.1656 27.9971 15.1656Z" fill="#BCAAA4" stroke="#333333" stroke-width="1.74982"/>
<path d="M13.9984 46.6624C15.287 46.6624 16.3317 45.6177 16.3317 44.3291C16.3317 43.0404 15.287 41.9957 13.9984 41.9957C12.7097 41.9957 11.665 43.0404 11.665 44.3291C11.665 45.6177 12.7097 46.6624 13.9984 46.6624Z" fill="#A1887F" stroke="#333333" stroke-width="1.16655"/>
<path d="M18.665 50.7452C19.6315 50.7452 20.415 49.9617 20.415 48.9952C20.415 48.0287 19.6315 47.2452 18.665 47.2452C17.6985 47.2452 16.915 48.0287 16.915 48.9952C16.915 49.9617 17.6985 50.7452 18.665 50.7452Z" fill="#A1887F" stroke="#333333" stroke-width="1.16655"/>
<path d="M37.3294 51.3286C38.6181 51.3286 39.6628 50.2839 39.6628 48.9953C39.6628 47.7066 38.6181 46.6619 37.3294 46.6619C36.0408 46.6619 34.9961 47.7066 34.9961 48.9953C34.9961 50.2839 36.0408 51.3286 37.3294 51.3286Z" fill="#A1887F" stroke="#333333" stroke-width="1.16655"/>
<path d="M41.9961 46.079C42.9626 46.079 43.7461 45.2955 43.7461 44.329C43.7461 43.3625 42.9626 42.579 41.9961 42.579C41.0296 42.579 40.2461 43.3625 40.2461 44.329C40.2461 45.2955 41.0296 46.079 41.9961 46.079Z" fill="#A1887F" stroke="#333333" stroke-width="1.16655"/>
</svg>
