<svg width="40" height="40" viewBox="0 0 40 40" fill="none" xmlns="http://www.w3.org/2000/svg">
<path d="M12.5 16.6667V25C12.5 27.7778 13.8889 29.1667 16.6667 29.1667H23.3333C26.1111 29.1667 27.5 27.7778 27.5 25V16.6667C27.5 15.5556 26.9444 15 25.8333 15H14.1667C13.0556 15 12.5 15.5556 12.5 16.6667Z" fill="#E3F2FD" stroke="#333333" stroke-width="1.66667"/>
<path d="M27.5 20C30.2778 20 32.2222 20.5556 33.3333 21.6667V23.3333C32.2222 24.4444 30.2778 25 27.5 25" fill="#E3F2FD"/>
<path d="M27.5 20C30.2778 20 32.2222 20.5556 33.3333 21.6667V23.3333C32.2222 24.4444 30.2778 25 27.5 25" stroke="#333333" stroke-width="1.66667"/>
<path d="M12.5003 18.3334C9.72255 18.3334 7.7781 18.8889 6.66699 20V21.6667C7.7781 22.7778 9.72255 23.3334 12.5003 23.3334" stroke="#333333" stroke-width="1.66667"/>
<path d="M20.0003 31.6667C18.8892 33.8889 18.8892 35.8334 20.0003 37.5C21.1114 35.8334 21.1114 33.8889 20.0003 31.6667Z" fill="#64B5F6" stroke="#333333" stroke-width="1.25"/>
<path d="M25.0003 33.3333C23.8892 35 23.8892 36.3889 25.0003 37.5C26.1114 36.3889 26.1114 35 25.0003 33.3333Z" fill="#64B5F6" stroke="#333333" stroke-width="0.833333"/>
<path d="M15.0003 33.3333C13.8892 35 13.8892 36.3889 15.0003 37.5C16.1114 36.3889 16.1114 35 15.0003 33.3333Z" fill="#64B5F6" stroke="#333333" stroke-width="0.833333"/>
</svg>
