<svg width="100" height="100" viewBox="0 0 100 100" fill="none" xmlns="http://www.w3.org/2000/svg">
<path d="M47.5 41.25C55.7843 41.25 62.5 35.0939 62.5 27.5C62.5 19.9061 55.7843 13.75 47.5 13.75C39.2157 13.75 32.5 19.9061 32.5 27.5C32.5 35.0939 39.2157 41.25 47.5 41.25Z" fill="#FFE0B2" stroke="#333333" stroke-width="2.5"/>
<path d="M42.5 28.125C43.5355 28.125 44.375 27.2855 44.375 26.25C44.375 25.2145 43.5355 24.375 42.5 24.375C41.4645 24.375 40.625 25.2145 40.625 26.25C40.625 27.2855 41.4645 28.125 42.5 28.125Z" fill="#333333"/>
<path d="M52.5 28.125C53.5355 28.125 54.375 27.2855 54.375 26.25C54.375 25.2145 53.5355 24.375 52.5 24.375C51.4645 24.375 50.625 25.2145 50.625 26.25C50.625 27.2855 51.4645 28.125 52.5 28.125Z" fill="#333333"/>
<path d="M45 32.5H50" stroke="#333333" stroke-width="1.875" stroke-linecap="round"/>
<path d="M47.5 78.75C55.7843 78.75 62.5 70.3553 62.5 60C62.5 49.6447 55.7843 41.25 47.5 41.25C39.2157 41.25 32.5 49.6447 32.5 60C32.5 70.3553 39.2157 78.75 47.5 78.75Z" fill="#F8BBD0" stroke="#333333" stroke-width="2.5"/>
<path d="M60 56.25C68.3333 58.75 74.1667 61.6667 77.5 65" stroke="#333333" stroke-width="2.5" stroke-linecap="round"/>
<path d="M35 56.25C31.6667 58.75 29.1667 61.6667 27.5 65" stroke="#333333" stroke-width="2.5" stroke-linecap="round"/>
<path d="M72.0139 64.2547L71.13 65.1386C70.6418 65.6267 70.6418 66.4182 71.13 66.9063L79.9688 75.7452C80.457 76.2333 81.2484 76.2333 81.7366 75.7452L82.6205 74.8613C83.1086 74.3731 83.1086 73.5817 82.6205 73.0935L73.7816 64.2547C73.2935 63.7665 72.502 63.7665 72.0139 64.2547Z" fill="#FFD54F" stroke="#333333" stroke-width="1.25"/>
<path d="M72.5 75L70 77.5" stroke="#333333" stroke-width="1.875" stroke-linecap="round"/>
<path d="M42.5 77.5L40 93.75" stroke="#333333" stroke-width="2.5" stroke-linecap="round"/>
<path d="M52.5 77.5L55 93.75" stroke="#333333" stroke-width="2.5" stroke-linecap="round"/>
<path d="M80 72.5H63.75C63.0596 72.5 62.5 73.0596 62.5 73.75V86.25C62.5 86.9404 63.0596 87.5 63.75 87.5H80C80.6904 87.5 81.25 86.9404 81.25 86.25V73.75C81.25 73.0596 80.6904 72.5 80 72.5Z" fill="white" stroke="#333333" stroke-width="1.25"/>
<path d="M65 77.5H78.75" stroke="#DDDDDD" stroke-width="0.625"/>
<path d="M65 81.25H78.75" stroke="#DDDDDD" stroke-width="0.625"/>
</svg>
