<svg width="153" height="153" viewBox="0 0 153 153" fill="none" xmlns="http://www.w3.org/2000/svg">
<path d="M76.5003 61.2001C89.1752 61.2001 99.4503 50.9249 99.4503 38.25C99.4503 25.5751 89.1752 15.3 76.5003 15.3C63.8254 15.3 53.5503 25.5751 53.5503 38.25C53.5503 50.9249 63.8254 61.2001 76.5003 61.2001Z" fill="#FFE0B2" stroke="#333333" stroke-width="2"/>
<path d="M68.8502 39.2062C70.4346 39.2062 71.7189 37.9219 71.7189 36.3375C71.7189 34.7531 70.4346 33.4688 68.8502 33.4688C67.2658 33.4688 65.9814 34.7531 65.9814 36.3375C65.9814 37.9219 67.2658 39.2062 68.8502 39.2062Z" fill="#333333"/>
<path d="M84.1501 39.2062C85.7345 39.2062 87.0189 37.9219 87.0189 36.3375C87.0189 34.7531 85.7345 33.4688 84.1501 33.4688C82.5657 33.4688 81.2812 34.7531 81.2812 36.3375C81.2812 37.9219 82.5657 39.2062 84.1501 39.2062Z" fill="#333333"/>
<path d="M68.8501 43.9875C73.9501 46.5375 79.0501 46.5375 84.1501 43.9875" stroke="#333333" stroke-width="1.5" stroke-linecap="round"/>
<path d="M76.5003 116.663C89.1752 116.663 99.4503 102.962 99.4503 86.0626C99.4503 69.1627 89.1752 55.4626 76.5003 55.4626C63.8254 55.4626 53.5503 69.1627 53.5503 86.0626C53.5503 102.962 63.8254 116.663 76.5003 116.663Z" fill="#BBDEFB" stroke="#333333" stroke-width="2"/>
<path d="M57.3752 76.5C51.0002 79.05 45.9002 84.15 42.0752 91.8" stroke="#333333" stroke-width="2" stroke-linecap="round"/>
<path d="M95.625 76.5C102 73.95 107.1 70.7625 110.925 66.9375" stroke="#333333" stroke-width="2" stroke-linecap="round"/>
<path d="M72.675 114.75L66.9375 143.438" stroke="#333333" stroke-width="2" stroke-linecap="round"/>
<path d="M80.3252 114.75L91.8002 143.438" stroke="#333333" stroke-width="2" stroke-linecap="round"/>
<path d="M137.651 68.3482C136.097 69.8941 135.698 72.1177 136.433 74.0235L130.302 80.2071V75.8235C130.302 74.6588 129.357 73.7059 128.202 73.7059H126.039C126.102 73.3459 126.102 73.0071 126.102 72.6471C126.102 66.2094 120.937 61 114.553 61C112.175 60.9978 109.853 61.7367 107.907 63.1157C105.961 64.4948 104.484 66.4466 103.68 68.7041C102.876 70.9617 102.782 73.4148 103.413 75.7278C104.044 78.0408 105.368 80.1007 107.204 81.6259V94.8824C107.204 96.0471 108.149 97 109.304 97H128.202C129.357 97 130.302 96.0471 130.302 94.8824V86.1788L139.394 77.0094C141.283 77.7506 143.488 77.3694 145 75.8235L137.651 68.3482ZM107.309 73.7059C107.267 73.3459 107.204 73.0071 107.204 72.6471C107.204 68.56 110.501 65.2353 114.553 65.2353C118.606 65.2353 121.902 68.56 121.902 72.6471C121.902 73.0071 121.839 73.3459 121.798 73.7059H107.309Z" fill="#333333"/>
</svg>
