<svg width="24" height="24" viewBox="0 0 24 24" fill="none" xmlns="http://www.w3.org/2000/svg">
<path d="M6 10.9999C5.33333 9.66658 5.33333 8.33324 6 6.99991C6.66667 5.66657 7.66667 4.99991 9 4.99991C9 3.66657 9.66667 2.66658 11 1.99991C12.3333 1.33324 13.6667 1.33324 15 1.99991C16.3333 2.66658 17 3.66657 17 4.99991C18.3333 4.99991 19.3333 5.66657 20 6.99991C20.6667 8.33324 20.6667 9.66658 20 10.9999C19.3333 12.3332 18.3333 12.9999 17 12.9999H8C6.66667 12.9999 6 12.3332 6 10.9999Z" fill="#B3E5FC" stroke="#333333" stroke-width="1.49991" stroke-linecap="round" stroke-linejoin="round"/>
<path d="M8 14.9991L7 18.9991" stroke="#64B5F6" stroke-width="1.49991" stroke-linecap="round"/>
<path d="M11.999 14.9991L10.999 18.9991" stroke="#64B5F6" stroke-width="1.49991" stroke-linecap="round"/>
<path d="M15.999 14.9991L14.999 18.9991" stroke="#64B5F6" stroke-width="1.49991" stroke-linecap="round"/>
</svg>
